<svg xmlns="http://www.w3.org/2000/svg" width="140" height="140" viewBox="0 0 140 140">
  <g id="Group_5382" data-name="Group 5382" transform="translate(-965 -308)">
    <rect id="Rectangle_4025" data-name="Rectangle 4025" width="140" height="140" transform="translate(965 308)" fill="#e5e5e5"/>
    <path id="Path_9523" data-name="Path 9523" d="M29.378-14.375a17.583,17.583,0,0,0-9.01,2.4,17.8,17.8,0,0,0-6.527,6.527,17.583,17.583,0,0,0-2.4,9.01,17.566,17.566,0,0,0,2.122,8.489,17.855,17.855,0,0,0,5.806,6.407,26.752,26.752,0,0,0-8.129,5.526,24.822,24.822,0,0,0-5.486,8.089,25.2,25.2,0,0,0-2,9.931H8.876a19.889,19.889,0,0,1,2.763-10.291,20.748,20.748,0,0,1,7.448-7.448A19.889,19.889,0,0,1,29.378,21.5a19.889,19.889,0,0,1,10.291,2.763,20.748,20.748,0,0,1,7.448,7.448A19.889,19.889,0,0,1,49.88,42.006h5.126a25.2,25.2,0,0,0-2-9.931,24.823,24.823,0,0,0-5.486-8.089,26.752,26.752,0,0,0-8.129-5.526,17.855,17.855,0,0,0,5.806-6.407,17.566,17.566,0,0,0,2.122-8.489,17.583,17.583,0,0,0-2.4-9.01,17.8,17.8,0,0,0-6.527-6.527A17.583,17.583,0,0,0,29.378-14.375Zm0,5.126a12.469,12.469,0,0,1,6.447,1.722A12.913,12.913,0,0,1,40.47-2.883a12.469,12.469,0,0,1,1.722,6.447,12.469,12.469,0,0,1-1.722,6.447,12.913,12.913,0,0,1-4.645,4.645,12.93,12.93,0,0,1-12.894,0,12.913,12.913,0,0,1-4.645-4.645,12.469,12.469,0,0,1-1.722-6.447,12.469,12.469,0,0,1,1.722-6.447,12.913,12.913,0,0,1,4.645-4.645A12.469,12.469,0,0,1,29.378-9.249Z" transform="translate(1006.05 364.375)" fill="#757575"/>
  </g>
</svg>
