<svg xmlns="http://www.w3.org/2000/svg" width="46" height="46" viewBox="0 0 46 46">
  <g id="Group_5225" data-name="Group 5225" transform="translate(-119 -160)">
    <circle id="Ellipse_673" data-name="Ellipse 673" cx="23" cy="23" r="23" transform="translate(119 160)" fill="#e5e5e5"/>
    <path id="Path_9523" data-name="Path 9523" d="M11.591-14.375a5.379,5.379,0,0,0-2.757.735,5.446,5.446,0,0,0-2,2A5.38,5.38,0,0,0,6.1-8.886a5.374,5.374,0,0,0,.649,2.6,5.463,5.463,0,0,0,1.776,1.96A8.185,8.185,0,0,0,6.041-2.638,7.594,7.594,0,0,0,4.363-.163,7.709,7.709,0,0,0,3.75,2.875H5.318A6.085,6.085,0,0,1,6.164-.274,6.348,6.348,0,0,1,8.442-2.552a6.286,6.286,0,0,1,6.3,0A6.348,6.348,0,0,1,17.018-.274a6.085,6.085,0,0,1,.845,3.149h1.568a7.709,7.709,0,0,0-.613-3.038,7.6,7.6,0,0,0-1.678-2.475,8.185,8.185,0,0,0-2.487-1.691,5.463,5.463,0,0,0,1.776-1.96,5.374,5.374,0,0,0,.649-2.6,5.38,5.38,0,0,0-.735-2.757,5.446,5.446,0,0,0-2-2A5.379,5.379,0,0,0,11.591-14.375Zm0,1.568a3.815,3.815,0,0,1,1.972.527,3.951,3.951,0,0,1,1.421,1.421,3.815,3.815,0,0,1,.527,1.972,3.815,3.815,0,0,1-.527,1.972,3.951,3.951,0,0,1-1.421,1.421,3.815,3.815,0,0,1-1.972.527,3.815,3.815,0,0,1-1.972-.527A3.951,3.951,0,0,1,8.2-6.914,3.815,3.815,0,0,1,7.67-8.886,3.815,3.815,0,0,1,8.2-10.859,3.951,3.951,0,0,1,9.618-12.28,3.815,3.815,0,0,1,11.591-12.807Z" transform="translate(130.344 188.75)" fill="#595959"/>
  </g>
</svg>
